<svg width="21" height="21" viewBox="0 0 21 21" fill="none" xmlns="http://www.w3.org/2000/svg">
<path d="M10.5085 18.355L9.8014 19.0621C9.98893 19.2497 10.2433 19.355 10.5085 19.355C10.7737 19.355 11.0281 19.2497 11.2156 19.0621L10.5085 18.355ZM2.55588 10.4024L1.84877 11.1095H1.84877L2.55588 10.4024ZM9.22255 3.73575L8.51544 4.44286L8.51544 4.44286L9.22255 3.73575ZM10.5085 5.02171L9.8014 5.72882C10.1919 6.11934 10.8251 6.11934 11.2156 5.72882L10.5085 5.02171ZM11.7945 3.73575L11.0874 3.02865L11.0874 3.02865L11.7945 3.73575ZM11.2156 17.6479L3.26299 9.69531L1.84877 11.1095L9.8014 19.0621L11.2156 17.6479ZM17.754 9.69531L9.8014 17.6479L11.2156 19.0621L19.1682 11.1095L17.754 9.69531ZM8.51544 4.44286L9.8014 5.72882L11.2156 4.3146L9.92966 3.02865L8.51544 4.44286ZM11.2156 5.72882L12.5016 4.44286L11.0874 3.02865L9.8014 4.3146L11.2156 5.72882ZM15.1278 1.35504C13.6123 1.35504 12.1589 1.95705 11.0874 3.02865L12.5016 4.44286C13.1981 3.74634 14.1428 3.35504 15.1278 3.35504V1.35504ZM18.8418 7.06909C18.8418 8.05411 18.4505 8.9988 17.754 9.69531L19.1682 11.1095C20.2398 10.0379 20.8418 8.58455 20.8418 7.06909H18.8418ZM20.8418 7.06909C20.8418 3.91331 18.2836 1.35504 15.1278 1.35504V3.35504C17.179 3.35504 18.8418 5.01788 18.8418 7.06909H20.8418ZM5.88922 3.35504C6.87424 3.35504 7.81892 3.74634 8.51544 4.44286L9.92966 3.02865C8.85806 1.95706 7.40467 1.35504 5.88922 1.35504V3.35504ZM2.17517 7.06909C2.17517 5.01788 3.83801 3.35504 5.88922 3.35504V1.35504C2.73344 1.35504 0.175171 3.91331 0.175171 7.06909H2.17517ZM3.26299 9.69531C2.56647 8.99879 2.17517 8.05411 2.17517 7.06909H0.175171C0.175171 8.58455 0.777183 10.0379 1.84877 11.1095L3.26299 9.69531Z" fill="#8996B8" fill-opacity="0.6"/>
</svg>
